<svg xmlns="http://www.w3.org/2000/svg" xmlns:xlink="http://www.w3.org/1999/xlink" viewBox="0,0,256,256" width="32px" height="32px" fill-rule="nonzero"><g fill="#0084c0" fill-rule="nonzero" stroke="none" stroke-width="1" stroke-linecap="butt" stroke-linejoin="miter" stroke-miterlimit="10" stroke-dasharray="" stroke-dashoffset="0" font-family="none" font-weight="none" font-size="none" text-anchor="none" style="mix-blend-mode: normal"><g transform="scale(8,8)"><path d="M20,3c-4.94531,0 -9,4.05469 -9,9c0,0.51953 0.08594,0.97656 0.15625,1.4375l-7.875,7.84375l-0.28125,0.3125v7.40625h7v-3h3v-3h3v-2.96875c1.17969,0.57813 2.55469,0.96875 4,0.96875c4.94531,0 9,-4.05469 9,-9c0,-4.94531 -4.05469,-9 -9,-9zM20,5c3.85547,0 7,3.14453 7,7c0,3.85547 -3.14453,7 -7,7c-1.21094,0 -2.45703,-0.35547 -3.40625,-0.875l-0.25,-0.125h-2.34375v3h-3v3h-3v3h-3v-4.5625l7.90625,-7.9375l0.375,-0.34375l-0.09375,-0.53125c-0.10156,-0.60156 -0.1875,-1.13672 -0.1875,-1.625c0,-3.85547 3.14453,-7 7,-7zM22,8c-1.10547,0 -2,0.89453 -2,2c0,1.10547 0.89453,2 2,2c1.10547,0 2,-0.89453 2,-2c0,-1.10547 -0.89453,-2 -2,-2z"></path></g></g></svg>